<svg width="781" height="781" viewBox="0 0 781 781" fill="none" xmlns="http://www.w3.org/2000/svg">
<circle cx="390.5" cy="390.5" r="390.5" fill="#124920"/>
<path d="M389.5 126C316.427 126 257 185.203 257 258C257 323.274 304.854 377.481 367.417 388.02V632.001C367.417 644.145 377.289 654 389.5 654C401.711 654 411.583 644.145 411.583 632.001V388.02C474.146 377.481 522 323.274 522 258C522 185.203 462.573 126 389.5 126ZM367.417 258C355.227 258 345.334 248.145 345.334 236.001C345.334 223.857 355.227 214.001 367.417 214.001C379.607 214.001 389.5 223.857 389.5 236.001C389.5 248.145 379.607 258 367.417 258Z" fill="#75B4A4"/>
</svg>
