<svg width="800" height="800" viewBox="0 0 800 800" fill="none" xmlns="http://www.w3.org/2000/svg">
<path fill-rule="evenodd" clip-rule="evenodd" d="M233.333 66.6667H133.333C114.924 66.6667 99.9997 81.5907 99.9997 100V700C99.9997 718.41 114.924 733.333 133.333 733.333H666.666C685.076 733.333 700 718.41 700 700V190.052L601.29 66.6667H566.666V266.667C566.666 285.076 551.743 300 533.333 300H266.666C248.257 300 233.333 285.076 233.333 266.667V66.6667ZM133.333 0H633.333L766.666 166.667V700C766.666 755.23 721.896 800 666.666 800H133.333C78.1047 800 33.333 755.23 33.333 700V100C33.333 44.7717 78.1047 0 133.333 0ZM300 233.333H500V66.6667H300V233.333ZM266.666 500C248.257 500 233.333 485.077 233.333 466.667C233.333 448.257 248.257 433.333 266.666 433.333H533.333C551.743 433.333 566.666 448.257 566.666 466.667C566.666 485.077 551.743 500 533.333 500H266.666ZM266.666 633.333C248.257 633.333 233.333 618.41 233.333 600C233.333 581.59 248.257 566.667 266.666 566.667H533.333C551.743 566.667 566.666 581.59 566.666 600C566.666 618.41 551.743 633.333 533.333 633.333H266.666Z" fill="#80C0BD"/>
</svg>
